<svg xmlns="http://www.w3.org/2000/svg" xmlns:xlink="http://www.w3.org/1999/xlink" width="252.724" height="39.04" viewBox="0 0 252.724 39.04"><defs><style>.a{fill:#3f1c04;}.b{clip-path:url(#a);}.c{fill:#00a4d8;}.d{fill:#526980;}.e{fill:#c97729;}.f{fill:#ab9d00;}.g{fill:#796e90;}.h{fill:#5b96a6;}.i{fill:#838970;}.j{fill:#908480;}.k{fill:#668f39;}.l{fill:#8c8b6a;}</style><clipPath id="a"><path d="M19.52,39.04A19.52,19.52,0,1,1,39.04,19.52,19.559,19.559,0,0,1,19.52,39.04Z"/></clipPath></defs><path class="a" d="M156.5,22.013c0,3.961-2.452,4.621-4.621,4.621s-4.621-.754-4.621-4.621V12.677h-1.509V22.2c0,2.546.943,6.035,6.13,6.035s6.129-3.489,6.129-6.035V12.677H156.5ZM52.3,27.859h2.075V21.353h8.2V19.467h-8.2V14.752H63.05V12.866H52.3ZM72.669,12.3a7.735,7.735,0,0,0-7.921,7.921,7.921,7.921,0,1,0,15.842,0A7.735,7.735,0,0,0,72.669,12.3Zm0,13.956c-3.489,0-5.658-2.735-5.658-6.035s2.263-6.035,5.658-6.035c3.489,0,5.658,2.735,5.658,6.035C78.327,23.616,76.158,26.256,72.669,26.256Zm23.2-9.336c0-1.886-.943-4.244-4.809-4.244H83.325V27.765H85.4v-6.7h4.715l3.866,6.7h2.546l-4.338-6.884A3.921,3.921,0,0,0,95.867,16.921ZM85.3,19.372v-4.9h5.186c1.6,0,3.206.377,3.206,2.452s-1.6,2.452-3.206,2.452Zm19.52-6.7H99.544V27.765h4.9c5.375,0,8.3-3.678,8.3-7.544C112.746,17.486,111.237,12.677,104.825,12.677Zm-.66,13.2h-2.546V14.563h3.112c4.9,0,5.941,3.678,5.941,5.658C110.577,23.993,107.654,25.879,104.165,25.879Zm11.41,1.98h1.509V20.693h8.3V19.278h-8.3V14.092h8.77V12.677H115.481V27.859ZM135.19,12.3a7.735,7.735,0,0,0-7.921,7.921,7.921,7.921,0,0,0,15.842,0A7.735,7.735,0,0,0,135.19,12.3Zm0,14.522c-3.866,0-6.224-3.018-6.224-6.507s2.357-6.507,6.224-6.507,6.224,3.018,6.224,6.507C141.413,23.71,139.15,26.822,135.19,26.822Zm37.626-1.32h0l-9.053-12.825h-1.886V27.765h1.509V14.846h0l9.053,12.919h1.886V12.677h-1.509Zm10.467-12.825h-5V27.765h5c3.772,0,7.921-2.546,7.921-7.544S187.055,12.677,183.283,12.677Zm-.471,13.768h-3.018V14.186h3.018c4.621,0,6.79,3.018,6.79,6.129S187.432,26.445,182.811,26.445Zm15.842-13.768-6.6,15.088h1.792l1.7-3.961h7.733l1.7,3.961h1.792l-6.6-15.088h-1.509Zm-2.546,9.807,3.3-7.921,3.3,7.921Zm9.43-8.393h5.092V27.765h1.509V14.092h5.092V12.677H205.537Zm14.051,13.768H221.1V12.771h-1.509ZM232.224,12.3a7.735,7.735,0,0,0-7.921,7.921,7.921,7.921,0,1,0,15.842,0A7.735,7.735,0,0,0,232.224,12.3Zm0,14.522c-3.866,0-6.224-3.018-6.224-6.507s2.357-6.507,6.224-6.507,6.224,3.018,6.224,6.507A6.22,6.22,0,0,1,232.224,26.822ZM254.2,12.677V25.5h0l-9.053-12.825h-1.886V27.765h1.509V14.846h0l9.053,12.919h1.886V12.677H254.2Z" transform="translate(-2.981 -0.701)"/><g class="b"><path class="c" d="M36.8.643A4.226,4.226,0,0,1,41.043-3.6h0A4.226,4.226,0,0,1,45.287.643h0a4.226,4.226,0,0,1-4.243,4.243h0V4.415A3.884,3.884,0,0,0,44.91.549h0a3.884,3.884,0,0,0-3.866-3.866h0A3.884,3.884,0,0,0,37.177.549h0a3.884,3.884,0,0,0,3.866,3.866h0v.377A4.207,4.207,0,0,1,36.8.643Z" transform="translate(-2.098 0.205)"/></g><g class="b"><path class="d" d="M26.3.632A4.427,4.427,0,0,1,30.732-3.8h0A4.427,4.427,0,0,1,35.164.632h0a4.427,4.427,0,0,1-4.432,4.432h0V4.215A3.727,3.727,0,0,0,34.41.632h0a3.744,3.744,0,0,0-3.678-3.678h0A3.6,3.6,0,0,0,27.149.632h0a3.582,3.582,0,0,0,3.583,3.583h0V4.97A4.29,4.29,0,0,1,26.3.632Z" transform="translate(-1.499 0.217)"/></g><g class="b"><path class="e" d="M16,.632A4.427,4.427,0,0,1,20.432-3.8h0A4.427,4.427,0,0,1,24.864.632h0a4.427,4.427,0,0,1-4.432,4.432h0V4.215A3.582,3.582,0,0,0,24.015.632h0a3.727,3.727,0,0,0-3.583-3.678h0A3.744,3.744,0,0,0,16.754.632h0a3.6,3.6,0,0,0,3.678,3.583h0V4.97A4.29,4.29,0,0,1,16,.632Z" transform="translate(-0.912 0.217)"/></g><g class="b"><path class="c" d="M5.9.643A4.226,4.226,0,0,1,10.143-3.6h0A4.226,4.226,0,0,1,14.387.643h0a4.226,4.226,0,0,1-4.243,4.243h0V4.415A3.884,3.884,0,0,0,14.01.549h0a3.884,3.884,0,0,0-3.866-3.866h0A3.884,3.884,0,0,0,6.277.549h0a3.884,3.884,0,0,0,3.866,3.866h0v.377A4.269,4.269,0,0,1,5.9.643Z" transform="translate(-0.336 0.205)"/></g><g class="b"><path class="c" d="M-4.3.643A4.226,4.226,0,0,1-.057-3.6h0A4.226,4.226,0,0,1,4.187.643h0A4.226,4.226,0,0,1-.057,4.887h0V4.415A3.884,3.884,0,0,0,3.81.549h0A3.884,3.884,0,0,0-.057-3.317h0A3.884,3.884,0,0,0-3.923.549h0A3.884,3.884,0,0,0-.057,4.415h0v.377A4.207,4.207,0,0,1-4.3.643Z" transform="translate(0.245 0.205)"/></g><g class="b"><path class="c" d="M36.1,10.509A4.83,4.83,0,0,1,40.909,5.7h0a4.83,4.83,0,0,1,4.809,4.809h0a4.83,4.83,0,0,1-4.809,4.809h0v-1.7a3.18,3.18,0,0,0,3.206-3.206h0a3.18,3.18,0,0,0-3.206-3.206h0A3.18,3.18,0,0,0,37.7,10.415h0a3.18,3.18,0,0,0,3.206,3.206h0v1.7A4.83,4.83,0,0,1,36.1,10.509Z" transform="translate(-2.058 -0.325)"/></g><g class="b"><path class="f" d="M26.3,10.532A4.427,4.427,0,0,1,30.732,6.1h0a4.427,4.427,0,0,1,4.432,4.432h0a4.427,4.427,0,0,1-4.432,4.432h0V14.21a3.727,3.727,0,0,0,3.678-3.583h0a3.744,3.744,0,0,0-3.678-3.678h0a3.6,3.6,0,0,0-3.583,3.678h0a3.582,3.582,0,0,0,3.583,3.583h0v.754A4.427,4.427,0,0,1,26.3,10.532Z" transform="translate(-1.499 -0.348)"/></g><g class="b"><path class="g" d="M14.9,10.469A5.473,5.473,0,0,1,20.369,5h0a5.473,5.473,0,0,1,5.469,5.469h0a5.473,5.473,0,0,1-5.469,5.469h0V13.11a2.636,2.636,0,0,0,2.64-2.64h0a2.636,2.636,0,0,0-2.64-2.64h0a2.636,2.636,0,0,0-2.64,2.64h0a2.636,2.636,0,0,0,2.64,2.64h0v2.829A5.473,5.473,0,0,1,14.9,10.469Z" transform="translate(-0.849 -0.285)"/></g><g class="b"><path class="h" d="M5.7,10.532A4.427,4.427,0,0,1,10.132,6.1h0a4.427,4.427,0,0,1,4.432,4.432h0a4.427,4.427,0,0,1-4.432,4.432h0V14.21a3.582,3.582,0,0,0,3.583-3.583h0a3.727,3.727,0,0,0-3.583-3.678h0a3.744,3.744,0,0,0-3.678,3.678h0a3.6,3.6,0,0,0,3.678,3.583h0v.754A4.427,4.427,0,0,1,5.7,10.532Z" transform="translate(-0.325 -0.348)"/></g><g class="b"><path class="i" d="M-4.3,10.543A4.226,4.226,0,0,1-.057,6.3h0a4.226,4.226,0,0,1,4.243,4.243h0A4.226,4.226,0,0,1-.057,14.787h0V14.41A3.884,3.884,0,0,0,3.81,10.543h0A3.884,3.884,0,0,0-.057,6.677h0a3.884,3.884,0,0,0-3.866,3.866h0A3.884,3.884,0,0,0-.057,14.41h0v.377A4.226,4.226,0,0,1-4.3,10.543Z" transform="translate(0.245 -0.359)"/></g><g class="b"><path class="h" d="M36.5,20.432A4.427,4.427,0,0,1,40.932,16h0a4.427,4.427,0,0,1,4.432,4.432h0a4.427,4.427,0,0,1-4.432,4.432h0V24.11a3.663,3.663,0,0,0,3.678-3.583h0a3.744,3.744,0,0,0-3.678-3.678h0a3.6,3.6,0,0,0-3.583,3.678h0a3.582,3.582,0,0,0,3.583,3.583h0v.754A4.427,4.427,0,0,1,36.5,20.432Z" transform="translate(-2.08 -0.912)"/></g><g class="b"><path class="d" d="M26.5,20.444A4.226,4.226,0,0,1,30.743,16.2h0a4.226,4.226,0,0,1,4.244,4.243h0a4.226,4.226,0,0,1-4.244,4.243h0V24.31a3.884,3.884,0,0,0,3.866-3.866h0a3.884,3.884,0,0,0-3.866-3.866h0a3.884,3.884,0,0,0-3.866,3.866h0a3.884,3.884,0,0,0,3.866,3.866h0v.377A4.226,4.226,0,0,1,26.5,20.444Z" transform="translate(-1.511 -0.923)"/></g><g class="b"><path class="c" d="M15.8,20.421A4.628,4.628,0,0,1,20.421,15.8h0a4.628,4.628,0,0,1,4.621,4.621h0a4.628,4.628,0,0,1-4.621,4.621h0V23.91a3.481,3.481,0,0,0,3.489-3.489h0a3.481,3.481,0,0,0-3.489-3.489h0a3.543,3.543,0,0,0-3.489,3.489h0a3.481,3.481,0,0,0,3.489,3.489h0v1.132A4.628,4.628,0,0,1,15.8,20.421Z" transform="translate(-0.901 -0.901)"/></g><g class="b"><path class="j" d="M5.3,20.409A4.83,4.83,0,0,1,10.109,15.6h0a4.83,4.83,0,0,1,4.809,4.809h0a4.83,4.83,0,0,1-4.809,4.809h0v-1.6a3.18,3.18,0,0,0,3.206-3.206h0A3.18,3.18,0,0,0,10.109,17.2h0A3.18,3.18,0,0,0,6.9,20.409h0a3.18,3.18,0,0,0,3.206,3.206h0v1.7a4.975,4.975,0,0,1-4.809-4.9Z" transform="translate(-0.302 -0.889)"/></g><g class="b"><path class="e" d="M-4.5,20.432A4.427,4.427,0,0,1-.068,16h0a4.427,4.427,0,0,1,4.432,4.432h0A4.427,4.427,0,0,1-.068,24.864h0V24.11a3.582,3.582,0,0,0,3.583-3.583h0A3.727,3.727,0,0,0-.068,16.849h0a3.744,3.744,0,0,0-3.678,3.678h0A3.6,3.6,0,0,0-.068,24.11h0v.754A4.427,4.427,0,0,1-4.5,20.432Z" transform="translate(0.257 -0.912)"/></g><g class="b"><path class="c" d="M36.4,30.321A4.628,4.628,0,0,1,41.021,25.7h0a4.628,4.628,0,0,1,4.621,4.621h0a4.628,4.628,0,0,1-4.621,4.621h0V33.81a3.481,3.481,0,0,0,3.489-3.489h0a3.481,3.481,0,0,0-3.489-3.489h0a3.481,3.481,0,0,0-3.489,3.489h0a3.481,3.481,0,0,0,3.489,3.489h0v1.132A4.569,4.569,0,0,1,36.4,30.321Z" transform="translate(-2.075 -1.465)"/></g><g class="b"><path class="e" d="M25.8,30.309A4.83,4.83,0,0,1,30.609,25.5h0a4.83,4.83,0,0,1,4.809,4.809h0a4.83,4.83,0,0,1-4.809,4.809h0v-1.7a3.18,3.18,0,0,0,3.206-3.206h0a3.18,3.18,0,0,0-3.206-3.206h0A3.18,3.18,0,0,0,27.4,30.215h0a3.18,3.18,0,0,0,3.206,3.206h0v1.7A4.712,4.712,0,0,1,25.8,30.309Z" transform="translate(-1.471 -1.454)"/></g><g class="b"><path class="k" d="M16.2,30.343A4.226,4.226,0,0,1,20.444,26.1h0a4.226,4.226,0,0,1,4.243,4.243h0a4.226,4.226,0,0,1-4.243,4.244h0V34.21a3.884,3.884,0,0,0,3.866-3.866h0a3.884,3.884,0,0,0-3.866-3.866h0a3.884,3.884,0,0,0-3.866,3.866h0a3.884,3.884,0,0,0,3.866,3.866h0v.377A4.226,4.226,0,0,1,16.2,30.343Z" transform="translate(-0.923 -1.488)"/></g><g class="b"><path class="l" d="M4.7,30.269A5.473,5.473,0,0,1,10.169,24.8h0a5.473,5.473,0,0,1,5.469,5.469h0a5.473,5.473,0,0,1-5.469,5.469h0V32.91a2.636,2.636,0,0,0,2.64-2.64h0a2.636,2.636,0,0,0-2.64-2.64h0a2.636,2.636,0,0,0-2.64,2.64h0a2.636,2.636,0,0,0,2.64,2.64h0v2.829A5.473,5.473,0,0,1,4.7,30.269Z" transform="translate(-0.268 -1.414)"/></g><g class="b"><path class="c" d="M-4.5,30.332A4.427,4.427,0,0,1-.068,25.9h0a4.427,4.427,0,0,1,4.432,4.432h0A4.427,4.427,0,0,1-.068,34.764h0V34.01a3.6,3.6,0,0,0,3.583-3.678h0A3.727,3.727,0,0,0-.068,26.654h0a3.744,3.744,0,0,0-3.678,3.678h0A3.744,3.744,0,0,0-.068,34.01h0v.754A4.427,4.427,0,0,1-4.5,30.332Z" transform="translate(0.257 -1.476)"/></g><g class="b"><path class="c" d="M36.8,40.343A4.226,4.226,0,0,1,41.043,36.1h0a4.226,4.226,0,0,1,4.243,4.243h0a4.226,4.226,0,0,1-4.243,4.243h0V44.21a3.884,3.884,0,0,0,3.866-3.866h0a3.884,3.884,0,0,0-3.866-3.866h0a3.884,3.884,0,0,0-3.866,3.866h0a3.884,3.884,0,0,0,3.866,3.866h0v.283A4.207,4.207,0,0,1,36.8,40.343Z" transform="translate(-2.098 -2.058)"/></g><g class="b"><path class="c" d="M25.2,40.269A5.473,5.473,0,0,1,30.669,34.8h0a5.473,5.473,0,0,1,5.469,5.469h0a5.473,5.473,0,0,1-5.469,5.469h0V42.91a2.636,2.636,0,0,0,2.64-2.64h0a2.636,2.636,0,0,0-2.64-2.64h0a2.636,2.636,0,0,0-2.64,2.64h0a2.636,2.636,0,0,0,2.64,2.64h0v2.829A5.6,5.6,0,0,1,25.2,40.269Z" transform="translate(-1.436 -1.984)"/></g><g class="b"><path class="f" d="M16,40.332A4.427,4.427,0,0,1,20.432,35.9h0a4.427,4.427,0,0,1,4.432,4.432h0a4.427,4.427,0,0,1-4.432,4.432h0V44.01a3.582,3.582,0,0,0,3.583-3.583h0a3.727,3.727,0,0,0-3.583-3.678h0a3.744,3.744,0,0,0-3.678,3.678h0a3.6,3.6,0,0,0,3.678,3.583h0v.754A4.427,4.427,0,0,1,16,40.332Z" transform="translate(-0.912 -2.046)"/></g><g class="b"><path class="d" d="M5.6,40.321A4.628,4.628,0,0,1,10.221,35.7h0a4.628,4.628,0,0,1,4.621,4.621h0a4.628,4.628,0,0,1-4.621,4.621h0V43.81a3.481,3.481,0,0,0,3.489-3.489h0a3.481,3.481,0,0,0-3.489-3.489h0a3.481,3.481,0,0,0-3.489,3.489h0a3.481,3.481,0,0,0,3.489,3.489h0v1.132A4.689,4.689,0,0,1,5.6,40.321Z" transform="translate(-0.319 -2.035)"/></g><g class="b"><path class="c" d="M-4.3,40.343A4.226,4.226,0,0,1-.057,36.1h0a4.226,4.226,0,0,1,4.243,4.243h0A4.226,4.226,0,0,1-.057,44.587h0V44.21A3.884,3.884,0,0,0,3.81,40.343h0A3.884,3.884,0,0,0-.057,36.477h0a3.884,3.884,0,0,0-3.866,3.866h0A3.884,3.884,0,0,0-.057,44.21h0v.283A4.207,4.207,0,0,1-4.3,40.343Z" transform="translate(0.245 -2.058)"/></g></svg>