<svg xmlns="http://www.w3.org/2000/svg" width="15.177" height="17.682" viewBox="0 0 15.177 17.682"><defs><style>.a{fill:none;stroke:#fff;stroke-linejoin:round;stroke-width:0.7px;}</style></defs><g transform="translate(0.35 0.35)"><path class="a" d="M-8987.823-148.735l2.681-2.873h3.418l.13.975,1.179.462.36-.761,2.748.667,1.906,3.923,1.856-.233a9.172,9.172,0,0,1-.076,1.246,9.35,9.35,0,0,1-.28,1.215,20.08,20.08,0,0,1-1.292,1.9v2.619l-1.29,1.38-.463,1.5-1.864,2.1h-2.047l-1.486-4,.354-1.888-.777-2.658-.8-.4-2.212.688-2.049-2.012Z" transform="translate(8987.823 151.609)"/></g></svg>